<svg width="1024" height="698" viewBox="0 0 1024 698" fill="none" xmlns="http://www.w3.org/2000/svg">
<path d="M170.432 85.4177V612.582C170.432 659.495 132.277 697.53 85.2162 697.53C38.1555 697.53 0 659.495 0 612.582V85.4177C0 38.5052 38.1555 0.469849 85.2162 0.469849C132.294 0.469849 170.432 38.5052 170.432 85.4177Z" fill="#F2F2F2"/>
<path d="M470.138 697.53C442.849 697.53 417.505 683.462 403.131 660.343L190.759 318.856C189.405 316.692 188.693 314.183 188.693 311.622C188.693 306.448 191.697 301.759 196.314 299.405C295.834 248.755 338.138 171.698 368.586 59.0456C377.908 24.5923 409.016 0.469849 444.811 0.469849H451.077C504.196 0.469849 542.404 51.8816 526.381 102.376C487.462 225.013 434.378 284.645 374.61 330.986L536.016 575.776C570.474 628.018 532.874 697.53 470.138 697.53Z" fill="#F2F2F2"/>
<path d="M1006.19 312.176L800.17 148.822C779.79 132.659 751.859 156.02 764.288 178.828L850.754 337.631C854.608 344.726 854.608 353.275 850.754 360.369L764.288 519.173C751.876 541.98 779.79 565.341 800.17 549.179L1006.19 385.824C1029.94 366.98 1029.94 331.021 1006.19 312.176Z" fill="white" fill-opacity="0.8"/>
<path d="M925.553 317.126L713.303 148.805C692.923 132.642 664.992 156.003 677.421 178.811L763.887 337.614C767.741 344.709 767.741 353.257 763.887 360.352L677.421 519.156C665.01 541.963 692.923 565.324 713.303 549.162L925.553 380.841C946.124 364.557 946.124 333.444 925.553 317.126Z" fill="#F2F2F2"/>
</svg>
